<svg width="11" height="10" viewBox="0 0 11 10" fill="none" xmlns="http://www.w3.org/2000/svg">
<path d="M5.415 3L7 4.58C7 4.555 7 4.525 7 4.5C7 4.10218 6.84197 3.72064 6.56066 3.43934C6.27936 3.15804 5.89783 3 5.5 3C5.47 3 5.445 3 5.415 3ZM3.265 3.4L4.04 4.175C4.015 4.28 4 4.385 4 4.5C4 4.89782 4.15804 5.27936 4.43934 5.56066C4.72064 5.84196 5.10218 6 5.5 6C5.61 6 5.72 5.985 5.825 5.96L6.6 6.735C6.265 6.9 5.895 7 5.5 7C4.83696 7 4.20107 6.73661 3.73223 6.26777C3.26339 5.79893 3 5.16304 3 4.5C3 4.105 3.1 3.735 3.265 3.4ZM0.5 0.635L1.64 1.775L1.865 2C1.04 2.65 0.39 3.5 0 4.5C0.865 6.695 3 8.25 5.5 8.25C6.275 8.25 7.015 8.1 7.69 7.83L7.905 8.04L9.365 9.5L10 8.865L1.135 0M5.5 2C6.16304 2 6.79893 2.26339 7.26777 2.73223C7.73661 3.20107 8 3.83696 8 4.5C8 4.82 7.935 5.13 7.82 5.41L9.285 6.875C10.035 6.25 10.635 5.43 11 4.5C10.135 2.305 8 0.75 5.5 0.75C4.8 0.75 4.13 0.875 3.5 1.1L4.585 2.175C4.87 2.065 5.175 2 5.5 2Z" fill="#9D9EA1"/>
</svg>
