<svg width="24" height="21" viewBox="0 0 24 21" fill="none" xmlns="http://www.w3.org/2000/svg">
<path d="M22.4795 0L17.8945 0.8125L21.0912 4.5L23.3895 4.08333L22.4795 0ZM14.4645 1.41667L12.1662 1.82292L15.3745 5.5L17.6612 5.09375L14.4645 1.41667ZM8.74785 2.41667L6.44952 2.84375L9.65785 6.52083L11.9445 6.11458L8.74785 2.41667ZM3.01952 3.45833L1.87618 3.65625C1.26996 3.7644 0.736585 4.08292 0.393163 4.54188C0.0497419 5.00084 -0.0756516 5.56273 0.0445153 6.10417L0.499515 8.14583L6.21618 7.13542L3.01952 3.45833ZM0.499515 8.14583V18.5625C0.499515 19.7188 1.54952 20.6458 2.83285 20.6458H21.4995C22.7945 20.6458 23.8329 19.7188 23.8329 18.5625V8.14583H0.499515Z" fill="white"/>
</svg>
